:SAMPLES-PER-SECOND 25
:FULLY-SPECIFIED
:DEGREES
374
root  15.0563 41.8077 -53.2916 6.00443 -1.25755 -4.76808
RightUpLeg  -57.5863 -0.961786 6.79788
RightLeg  65.8725 2.6324 5.80271
RightFoot  -10.7928 -0.0619062 -2.28546
RightToes  2.84633e-005 7.89722e-005 -0.000426369
Spine  1.63468 -3.43208 2.82954
Spine1  3.61245 -6.08432 9.16936
HEad  4.12113 -3.01972 -7.92918
LeftShoulder1  -3.88251e-019 0 -3.92111e-022
LeftArm  -30.9463 -2.54791 -87.4007
LeftForeArm  36.9804 1.05337 -2.75942
LeftHand  -0.671074 -4.27828 8.33776
RightShoulder  7.45443e-017 -2.42657e-020 1.96277e-018
RightArm  -27.812 -17.2117 67.5443
RightForeArm  18.68 9.17475 6.37244
RightHand  -1.12413 9.51163 -9.11282
LeftUpLeg  1.27924 -0.464581 4.2789
LeftLeg  23.4607 -0.811825 -0.0123676
LeftFoot  15.7649 -0.579321 1.98294
LeftToes  3.91355e-005 3.11907e-005 -4.10385e-006
375
root  14.7838 42.6657 -52.0258 6.72786 -1.19961 -4.40327
RightUpLeg  -54.1646 -1.04771 6.88012
RightLeg  63.4702 2.89298 5.74294
RightFoot  -11.7495 -0.0905822 -3.08742
RightToes  2.84633e-005 7.89722e-005 -0.000426369
Spine  1.71064 -3.07597 3.18446
Spine1  3.68263 -5.52373 9.56219
HEad  3.4733 -3.45755 -8.41742
LeftShoulder1  -3.88251e-019 0 -3.92111e-022
LeftArm  -31.491 -1.33812 -88.5031
LeftForeArm  38.4658 2.20726 -1.71648
LeftHand  -0.607759 -3.87653 7.87463
RightShoulder  7.45443e-017 -2.42657e-020 1.96277e-018
RightArm  -26.9237 -16.8189 67.2673
RightForeArm  19.409 9.63124 7.1264
RightHand  -1.163 9.50577 -9.41691
LeftUpLeg  -4.37036 0.0702647 3.93306
LeftLeg  32.0025 -3.45906 -1.97091
LeftFoot  23.5104 -0.702212 1.77093
LeftToes  3.91355e-005 3.11907e-005 -4.10385e-006
376
root  14.5423 43.4114 -50.9043 6.19731 -1.26949 -4.83262
RightUpLeg  -49.713 -0.572581 7.56877
RightLeg  61.0445 2.88819 5.14536
RightFoot  -13.0354 -0.137512 -3.34167
RightToes  2.84633e-005 7.89722e-005 -0.000426369
Spine  2.3224 -2.47889 3.94448
Spine1  4.77312 -4.61955 10.0097
HEad  2.94647 -4.23127 -8.21809
LeftShoulder1  -3.88251e-019 0 -3.92111e-022
LeftArm  -31.9265 -0.609469 -88.7758
LeftForeArm  38.6144 2.14394 -1.59597
LeftHand  -0.528878 -4.20125 6.67809
RightShoulder  7.45443e-017 -2.42657e-020 1.96277e-018
RightArm  -26.2695 -16.0182 67.553
RightForeArm  19.5832 9.88092 7.58703
RightHand  -1.28377 9.8567 -10.1237
LeftUpLeg  -11.1742 0.37587 4.03076
LeftLeg  46.1862 -5.41694 -5.5954
LeftFoot  22.3171 -0.613312 1.56694
LeftToes  3.91355e-005 3.11907e-005 -4.10385e-006
377
root  14.3672 44.1142 -49.8286 5.10497 -1.58097 -5.42133
RightUpLeg  -44.6031 0.0717209 8.28499
RightLeg  58.1962 2.92184 4.62266
RightFoot  -14.2944 -0.178239 -3.16009
RightToes  2.84633e-005 7.89722e-005 -0.000426369
Spine  3.04807 -1.80394 4.87029
Spine1  6.08375 -3.51979 10.3093
HEad  3.04742 -4.81429 -8.16102
LeftShoulder1  -3.88251e-019 0 -3.92111e-022
LeftArm  -32.4976 -0.132451 -88.4304
LeftForeArm  37.7617 2.13362 -1.39779
LeftHand  -0.524475 -4.42966 6.48406
RightShoulder  7.45443e-017 -2.42657e-020 1.96277e-018
RightArm  -25.8304 -15.1106 68.3061
RightForeArm  19.0821 10.0757 7.58032
RightHand  -1.39798 10.2387 -10.731
LeftUpLeg  -18.5688 0.400015 3.77219
LeftLeg  62.4522 -3.24897 -6.00995
LeftFoot  17.8482 -0.768357 2.53212
LeftToes  3.91355e-005 3.11907e-005 -4.10385e-006
378
root  14.2228 44.8482 -48.7777 4.01864 -1.97444 -5.51778
RightUpLeg  -39.4526 0.0615018 8.57089
RightLeg  54.9366 3.24615 4.5557
RightFoot  -14.861 -0.206308 -3.44338
RightToes  2.84633e-005 7.89722e-005 -0.000426369
Spine  3.5741 -1.13049 5.69159
Spine1  7.03337 -2.25086 10.148
HEad  3.86888 -5.2066 -8.50713
LeftShoulder1  -3.88251e-019 0 -3.92111e-022
LeftArm  -33.1083 0.196017 -87.9725
LeftForeArm  36.2698 2.07837 -0.722475
LeftHand  -0.583988 -4.21031 7.33825
RightShoulder  7.45443e-017 -2.42657e-020 1.96277e-018
RightArm  -25.1331 -14.4255 68.9153
RightForeArm  18.3298 10.6153 7.60651
RightHand  -1.40825 10.41 -10.6958
LeftUpLeg  -26.0075 -0.00918311 2.84245
LeftLeg  77.4789 -0.791924 -2.70234
LeftFoot  11.3941 -1.11693 5.25133
LeftToes  3.91355e-005 3.11907e-005 -4.10385e-006
379
root  14.0821 45.5857 -47.7392 2.80709 -1.80567 -5.62243
RightUpLeg  -34.1364 -1.25087 8.89227
RightLeg  51.3966 3.99134 4.97817
RightFoot  -15.3505 -0.236388 -3.78689
RightToes  2.84633e-005 7.89722e-005 -0.000426369
Spine  3.98566 -0.689632 6.51531
Spine1  7.80812 -1.34828 10.0931
HEad  4.947 -5.40302 -9.09838
LeftShoulder1  -3.88251e-019 0 -3.92111e-022
LeftArm  -33.6858 0.281053 -87.5836
LeftForeArm  34.789 2.02789 0.0172135
LeftHand  -0.629367 -4.1463 7.9332
RightShoulder  7.45443e-017 -2.42657e-020 1.96277e-018
RightArm  -23.3784 -13.8015 69.0987
RightForeArm  17.5277 11.692 7.97249
RightHand  -1.29776 10.2801 -9.96788
LeftUpLeg  -33.0848 -1.16849 2.12587
LeftLeg  90.1065 -0.295713 0.616199
LeftFoot  0.174207 -0.845002 8.53842
LeftToes  3.91355e-005 3.11907e-005 -4.10385e-006
